<?xml version="1.0" encoding="UTF-8"?>
<svg width="126px" height="32px" viewBox="0 0 126 32" version="1.1" xmlns="http://www.w3.org/2000/svg" xmlns:xlink="http://www.w3.org/1999/xlink">
    <!-- Generator: Sketch 46 (44423) - http://www.bohemiancoding.com/sketch -->
    <title>Slice 7</title>
    <desc>Created with Sketch.</desc>
    <defs>
        <polygon id="path-1" points="7.10470675 15.479788 7.10470675 0.371043597 0.0175829342 0.371043597 0.0175829342 15.479788"></polygon>
        <polygon id="path-3" points="14.1777424 0 0.264836121 0 0.264836121 15.4798624 14.1777424 15.4798624 14.1777424 3.87994602e-15"></polygon>
    </defs>
    <g id="V2.0" stroke="none" stroke-width="1" fill="none" fill-rule="evenodd">
        <g id="Group-8" transform="translate(1.000000, 1.000000)">
            <g id="Page-1-Copy-14" stroke-width="0.5" stroke="#0B71BB" fill="#0B71BB">
                <g id="Group-6">
                    <path d="M25.4278406,8.53420909 L16.9262156,1.21802727 C15.2446219,-0.229745455 12.7412156,-0.300927273 10.9739813,1.04702727 L0.00016875,9.4203 L9.42021563,17.0788909 L10.0829813,17.6176636 C10.5166688,17.9703 11.1456844,17.9797091 11.5907625,17.6401636 L12.5209969,16.9303909 L11.2325906,15.8831182 L3.34521563,9.47061818 L12.2784188,2.65434545 C13.2432469,1.9188 14.6084344,1.95807273 15.5260125,2.74761818 L24.0272156,10.0638 C24.2706375,10.2732545 24.4393875,10.5616636 24.4600594,10.8766636 C24.4638563,10.9294364 24.4769344,10.9805727 24.4769344,11.0337545 L24.4769344,13.3565727 C24.4769344,13.6998 24.63345,14.0250273 24.9042938,14.2455273 L26.5863094,15.6127091 L26.5863094,13.2007091 L26.5863094,11.0333455 C26.5863094,10.0777091 26.1648563,9.1683 25.4278406,8.53420909" id="Fill-1"></path>
                    <path d="M1.15893281,21.5483045 L9.66013594,28.8640773 C11.3417297,30.31185 13.8451359,30.3830318 15.6123703,29.0350773 L26.5861828,20.6618045 L17.1661359,13.0032136 L16.5033703,12.4644409 C16.0696828,12.1118045 15.4406672,12.1023955 14.9955891,12.4419409 L14.0653547,13.1517136 L15.3537609,14.1989864 L23.2411359,20.6114864 L14.3079328,27.4277591 C13.3431047,28.1628955 11.9779172,28.1240318 11.0603391,27.3344864 L2.55913594,20.0187136 C2.31571406,19.80885 2.14696406,19.5204409 2.12629219,19.2054409 C2.12249531,19.1526682 2.10941719,19.1015318 2.10941719,19.04835 L2.10941719,16.7255318 C2.10941719,16.3823045 1.95290156,16.0570773 1.68205781,15.8369864 L4.21875e-05,14.4693955 L4.21875e-05,16.8813955 L4.21875e-05,19.04835 C4.21875e-05,20.0039864 0.421917188,20.9138045 1.15893281,21.5483045" id="Fill-4"></path>
                </g>
            </g>
            <g id="Page-1-Copy-15" transform="translate(39.000000, 7.000000)">
                <g id="Group-3" transform="translate(0.000000, 0.000109)" fill="#2A3136">
                    <path d="M0.525249206,14.2582307 C2.58605647,13.8377692 5.21530579,12.7860695 5.21530579,11.0829275 C5.21530579,10.0312278 4.54256744,9.48462788 3.02836009,8.66445499 C1.24057976,7.69684755 -5.46053858e-05,6.81387846 -5.46053858e-05,5.32042116 C-5.46053858e-05,3.09142931 3.11190633,1.0513721 5.99343254,0.399383792 L6.43464406,2.01843348 C5.1525096,2.22866422 2.03945655,3.19627165 2.03945655,4.96275588 C2.03945655,6.05650176 3.53291386,6.72924012 4.41588295,7.25508998 C6.01472864,8.20140132 7.2968631,8.87468572 7.2968631,10.5778277 C7.2968631,12.639181 5.1099174,14.889469 1.07239517,15.8357803 L0.525249206,14.2582307 Z" id="Fill-1"></path>
                </g>
                <path d="M24.7908998,15.457092 C24.9596304,14.342596 24.9596304,9.84202013 24.9596304,9.33746637 L24.9596304,6.54003245 C24.9596304,6.20366328 24.9170382,1.13519137 24.8749921,0.736025995 C25.3522431,0.737118103 30.7614527,0.505045213 31.6045598,0.420406865 L31.6051059,2.04000261 L27.1547669,2.1382923 C26.9865823,2.14211468 26.851707,2.2791742 26.851707,2.44790484 L26.851707,7.50763989 C27.2306684,7.50763989 30.26782,7.35092243 31.2561774,7.28812624 L31.2681906,8.93775495 L26.851707,8.85366265 L26.851707,10.8516737 C26.851707,11.1880429 26.830957,15.1627689 26.9150493,15.457092 L24.7908998,15.457092 Z" id="Fill-4" fill="#2A3136"></path>
                <path d="M42.4134229,15.4657196 C42.1120012,15.4657196 36.9965686,15.4990289 35.6347103,15.4635354 C35.4643415,15.459167 35.3332886,15.3193772 35.3392952,15.1490084 C35.3895321,13.6839459 35.3895321,9.80532532 35.3895321,9.35810721 L35.3895321,6.5404693 C35.3895321,6.20355407 35.348032,1.13180583 35.3261899,0.735916785 C35.4315783,0.750114185 41.7237569,0.457429317 42.4134229,0.371152807 L42.4134229,2.06064344 C41.8291453,2.06064344 38.5642893,2.13982125 37.5808463,2.16111735 C37.4137538,2.16439368 37.2816087,2.30090714 37.2816087,2.46854568 L37.2816087,7.44473449 C37.6605701,7.44473449 40.4159579,7.33934609 41.4463615,7.21320765 L41.4463615,8.87484954 C40.9833079,8.87484954 37.7026163,8.79021119 37.2816087,8.79021119 L37.2816087,13.6151431 C37.2816087,13.7844198 37.4148459,13.9225714 37.5846686,13.9247556 C38.4938483,13.9351306 40.9106827,13.968986 42.4134229,13.8586831 L42.4134229,15.4657196 Z" id="Fill-6" fill="#2A3136"></path>
                <g id="Group-10" transform="translate(78.631756, 0.000109)">
                    <mask id="mask-2" fill="white">
                        <use xlink:href="#path-1"></use>
                    </mask>
                    <g id="Clip-9"></g>
                    <path d="M7.10481596,15.4656104 C6.80339423,15.4656104 1.68796169,15.4989197 0.326103364,15.4634262 C0.15573456,15.4590578 0.0246816344,15.319268 0.0306882268,15.1488992 C0.0809251818,13.6838367 0.0809251818,9.8052161 0.0809251818,9.35799799 L0.0809251818,6.54036009 C0.0809251818,6.20344486 0.0394250886,1.13169662 0.0175829342,0.735807574 C0.122971329,0.750004974 6.41514994,0.457320106 7.10481596,0.371043597 L7.10481596,2.06053423 C6.52053833,2.06053423 3.25622837,2.13971204 2.27223931,2.16100814 C2.10514683,2.16428447 1.9730018,2.30079793 1.9730018,2.46843647 L1.9730018,7.44462528 C2.35196318,7.44462528 5.10735095,7.33923688 6.13775458,7.21309844 L6.13775458,8.87474033 C5.67470091,8.87474033 2.39400933,8.79010198 1.9730018,8.79010198 L1.9730018,13.6150339 C1.9730018,13.7843106 2.10623894,13.9224622 2.27606169,13.9246464 C3.18524137,13.9350214 5.60207574,13.9688768 7.10481596,13.8585739 L7.10481596,15.4656104 Z" id="Fill-8" fill="#2A3136" mask="url(#mask-2)"></path>
                </g>
                <path d="M48.1336101,0.371425834 C48.0495178,0.833933452 47.9648795,5.34160805 47.9648795,7.99160743 L47.9648795,13.6328898 C47.9648795,13.8043507 48.1003008,13.9430484 48.2712157,13.9425024 C49.1312505,13.9414103 51.2237289,13.9315813 52.9700091,13.8589561 L52.9700091,15.4572558 C52.7062651,15.4572558 47.6612735,15.4987559 46.2393493,15.4632624 C46.0591515,15.4588939 45.9259143,15.3038146 45.9417499,15.124709 C46.0722568,13.6416267 46.0722568,9.80122991 46.0722568,9.33708413 L46.0722568,6.54019627 C46.0722568,6.20382709 46.0302106,0.771137259 45.9881645,0.371425834 L48.1336101,0.371425834 Z" id="Fill-11" fill="#2A3136"></path>
                <path d="M58.6906332,9.10593953 C58.6906332,11.2087929 58.7534293,14.9732882 58.7747254,15.457092 L56.7346682,15.457092 C56.7767144,14.5315307 56.7980105,9.6104933 56.7980105,9.06389339 L56.7980105,6.79285539 C56.7980105,6.43519011 56.7346682,0.876361837 56.6926221,0.371262018 L58.7954755,0.371262018 C58.7534293,0.749677342 58.6906332,4.3110406 58.6906332,6.83490154 L58.6906332,9.10593953 Z" id="Fill-13" fill="#2A3136"></path>
                <g id="Group-17" transform="translate(8.190808, 0.000109)">
                    <mask id="mask-4" fill="white">
                        <use xlink:href="#path-3"></use>
                    </mask>
                    <g id="Clip-16"></g>
                    <path d="M6.70444927,3.8385402 C6.79727843,3.6184805 7.05283163,3.61356601 7.14948317,3.83089545 C7.74031344,5.15616816 9.25779711,8.65528128 9.41724484,9.04297952 L4.52351016,9.29525641 C4.65565519,9.00912418 6.11034267,5.24790521 6.70444927,3.8385402 L6.70444927,3.8385402 Z M2.16128117,15.4798624 C2.62378879,14.2452346 3.75193606,11.0366222 3.93541016,10.6833253 L9.935996,10.3890023 C10.0959898,10.6718582 11.5102693,13.965109 12.1617115,15.4798624 L14.1777424,15.4798624 C12.7492655,12.6518495 8.42724919,2.84144586 6.97856831,-0.000218421543 L6.94416691,-0.000218421543 C6.54991603,0.759888549 1.5704509,12.5852309 0.264836121,15.4798624 L2.16128117,15.4798624 Z" id="Fill-15" fill="#2A3136" mask="url(#mask-4)"></path>
                </g>
                <path d="M74.9491138,0.371425834 L73.1542347,0.38780745 C73.1345768,1.0818419 73.0166291,11.2297068 73.0166291,11.8188989 C72.3870291,11.1456145 63.8866086,1.11351303 63.3356403,0.440774674 L62.5427701,0.440774674 C62.4444804,2.60697033 62.6667243,13.888443 62.5684346,15.4659926 L64.417919,15.4659926 C64.4004453,14.8522281 64.5216693,6.85090092 64.549518,4.49850089 L73.9951577,15.479644 L75.0266534,15.4659926 C75.1052852,10.1659939 74.870482,1.6333563 74.9491138,0.371425834" id="Fill-18" fill="#2A3136"></path>
            </g>
        </g>
    </g>
</svg>